<?xml version="1.0"?><svg width="744.09448" height="1052.3622" xmlns="http://www.w3.org/2000/svg">

 <g>
  <title>Layer 1</title>
  <g id="layer1">
   <path fill="#ffffff" stroke-width="5" stroke-linecap="round" stroke-miterlimit="4" id="path5065" d="m374.440277,235.147141c-28.09375,122.133408 -59.796265,271.367661 -87.889984,393.501175c-104.646347,-72.459656 -177.631943,-13.565002 -167.081093,69.366577c6.77066,53.218262 100.113518,110.197083 189.182228,23.314941c16.555725,-80.978943 46.367218,-214.482422 68.943939,-319.252228l164.991791,117.079559c-16.838135,75.897949 -33.38269,151.300232 -51.510986,230.110352c-104.646271,-72.459656 -177.704468,-13.580627 -167.153595,69.350952c6.77066,53.218201 100.129059,110.124634 189.197784,23.242493l101.088928,-438.098053c-0.671814,-0.171265 -1.343994,-0.336609 -2.015808,-0.507874l0.207275,-0.259094c-14.48114,-11.41571 -223.537903,-164.172043 -237.96048,-167.848801zm19.701843,90.422256l165.121368,119.307922c-2.511047,11.128571 -4.945862,22.141388 -7.410522,33.165283l-165.214661,-117.810272c2.132324,-10.114838 5.706512,-25.871643 7.503815,-34.662933z"/>
  </g>
 </g>
</svg>